<svg width="136" height="123" viewBox="0 0 136 123" fill="none" xmlns="http://www.w3.org/2000/svg">
<g filter="url(#filter0_d_78_24)">
<circle cx="60" cy="56" r="55" fill="#C9B2A8"/>
<path d="M115.891 59.3505C115.808 61.3262 115.48 63.8839 115.091 65.8162C114.971 66.4195 114.974 66.1036 114.886 66.5178C114.711 67.3251 114.574 68.091 114.362 68.8821C114.291 69.144 114.288 68.7964 114.215 69.071C113.816 70.572 113.433 71.9962 112.922 73.4916C110.399 80.8332 106.453 87.5441 101.16 93.3268C99.4188 95.2393 97.0895 97.3519 95.0383 99.0554C94.7993 99.2548 94.9896 99.195 94.9475 99.2371C94.2802 99.8924 94.4283 99.5823 93.9378 99.9396C91.9882 101.355 89.7606 102.837 87.7705 104.018C86.9222 104.519 87.8538 104.158 86.9472 104.573C86.8843 104.602 87.0649 104.412 86.8245 104.536C86.2797 104.819 85.2599 105.37 84.831 105.575C84.0061 105.972 83.8703 106.037 83.0855 106.4C82.01 106.892 80.7001 107.4 79.5181 107.863C79.2656 107.961 79.6305 107.911 79.2291 108.075C78.8285 108.24 77.7468 108.61 77.3727 108.71C76.9997 108.813 77.1365 108.701 77.0671 108.709C76.4956 108.77 75.2824 109.305 75.1173 109.353C72.1449 110.261 69.4992 110.675 66.6096 111.024C64.4047 111.289 62.055 111.451 59.948 111.442C57.4395 111.43 55.3343 111.249 52.9041 110.951C52.6488 110.918 52.9364 111.051 52.6242 111.011C49.3095 110.582 46.0617 109.836 42.9225 108.753C42.6074 108.644 43.0413 108.698 42.7287 108.584C40.8079 107.904 37.912 106.529 36.6707 106.332C35.425 105.741 33.9408 104.958 32.902 104.287C32.2337 103.854 32.9472 104.16 32.0852 103.704C31.8915 103.6 32.0977 103.814 31.8101 103.652C30.5989 102.968 29.3366 102.121 28.1872 101.362C27.9533 101.208 27.9751 101.31 27.9028 101.274C27.2962 100.973 26.5076 100.168 26.3247 100.01C24.9215 98.8132 23.8728 97.9739 22.6071 96.8162C22.3145 96.5463 22.5962 96.9354 22.3125 96.6772C20.8434 95.3355 19.4131 93.844 18.1685 92.3468C17.8921 92.0133 18.214 92.2613 18.0855 92.0992C17.5217 91.3835 17.2751 91.3253 16.7515 90.6235C16.6415 90.4753 16.7607 90.5131 16.7456 90.4821C16.5114 89.9973 16.1001 89.7397 16.0145 89.6341C14.936 88.3012 14.4513 87.3016 13.5322 85.9331C13.4226 85.7686 13.5896 86.1916 13.2865 85.7252C11.2694 82.6171 9.52183 79.0766 8.29267 75.6268C8.10143 75.0894 8.30689 75.4472 8.30175 75.4107C8.21538 74.8192 7.93138 74.5239 7.86337 74.3505C7.33255 72.9838 7.07656 71.6341 6.61767 70.7279C5.03428 64.7232 4.31312 58.485 4.89339 52.3576C4.90061 52.2796 4.97508 52.4235 4.98921 52.2681C5.17433 50.3997 5.02261 50.7597 5.00011 49.4986C4.99504 49.1799 5.31151 48.2582 5.33865 48.1784C5.43338 47.8827 5.51186 48.2142 5.53633 48.1143C5.738 47.2923 5.30536 47.3603 5.50222 46.2265C5.50919 46.1912 5.5575 46.3531 5.58178 46.2595C5.65748 45.969 5.68215 45.672 5.76357 45.3902C5.95251 44.7466 6.19292 44.5522 6.30642 43.5319C6.32215 43.4029 6.04265 43.5405 6.29831 42.548C6.39454 42.1541 6.87192 40.4001 7.03965 39.9235C7.20175 39.4443 7.17243 39.7985 7.18604 39.7649C7.68807 38.4933 7.57512 38.9993 7.92897 38.4004C8.28686 37.8055 7.89594 37.8697 7.95093 37.5943C8.00481 37.3185 8.42893 36.409 8.54558 36.1914C8.66056 35.9731 8.59499 36.2753 8.6887 36.0782C9.31632 34.7765 8.76061 35.4252 8.88794 34.9625C9.19572 33.8729 9.79445 33.1727 10.2577 32.2604C10.3839 32.0132 10.2321 32.1919 10.3351 31.9662C10.747 31.0735 11.086 30.5862 11.5532 29.5711C11.6289 29.4049 11.9334 28.537 12.3299 28.0912C12.3862 28.0283 12.3225 28.2631 12.5475 27.911C12.8823 27.385 13.4887 26.4368 13.8394 25.8653C14.098 25.4428 13.6956 25.8575 14.0686 25.3562C14.2353 25.1342 14.0008 25.595 14.31 25.1761C14.6159 24.7574 15.378 23.676 15.6783 23.2722C15.9759 22.8677 15.7474 23.0401 15.7672 23.0042C15.8878 22.7871 16.4467 21.9965 16.5009 21.9303C19.1616 18.533 22.0706 15.7904 25.2915 13.1143C25.5451 12.9049 25.3211 12.9762 25.3593 12.9435C26.2185 12.2123 25.6637 12.9418 26.3284 12.5182C26.1328 12.4515 26.516 12.1879 27.1408 11.6994C27.4422 11.4646 27.2354 11.5345 27.2592 11.5082C27.6559 11.0893 28.0565 10.9679 28.1547 10.9312C28.518 10.7952 28.7874 10.4672 29.0363 10.3782C29.2843 10.2897 28.8534 10.6974 29.4812 10.2734C29.6238 10.1037 29.0642 10.2819 29.5303 9.93993C31.2788 8.62231 34.9159 6.75837 36.5186 6.05203C38.108 5.32567 38.6324 5.1077 39.5839 4.74698C41.3128 4.11563 40.6437 4.24878 41.7011 3.81028C42.7686 3.38285 42.3363 3.84731 42.5122 3.854C42.6852 3.86307 42.8318 3.74562 43.0336 3.71692C43.2346 3.68871 42.8361 3.86243 43.2874 3.73113C43.7393 3.59656 44.9339 3.1264 45.079 3.01956C45.3819 2.79032 44.7784 2.79572 46.0035 2.52366C46.074 2.50849 45.8674 2.6426 46.1363 2.58083C48.2592 2.0919 50.4977 1.65942 52.6583 1.4263C52.9558 1.39448 52.7016 1.51522 52.8746 1.49798C54.679 1.33278 54.0234 1.26904 54.9997 1.01101C54.7949 1.24883 55.346 1.31576 56.7192 1.23311C57.5474 1.18762 57.3976 1.10301 57.9299 1.01506C58.0894 0.9884 58.6751 1.03641 58.7807 0.990449C59.1298 0.840711 58.5729 0.677301 60.0018 0.734777C60.0645 0.737869 59.8649 0.817049 60.0814 0.821994C61.4803 0.863068 61.6431 0.713503 63.1519 0.771789C64.3402 0.816995 66.4316 1.10782 67.7607 1.31759C67.7001 1.55183 68.9587 1.68272 69.4963 1.61004C70.3565 1.7657 71.2806 1.94011 72.1016 2.1479C72.3834 2.21937 72.1816 2.24598 72.2157 2.26142C72.7359 2.50137 73.1398 2.43392 73.3243 2.47295C75.3221 2.90864 76.8787 3.51518 78.7502 4.059C78.8164 4.07865 78.9804 3.95666 79.4275 4.25536C79.4558 4.27538 78.8262 4.11927 79.6827 4.44943C80.5402 4.77883 82.0991 5.5228 83.2821 5.9938C83.5683 6.1057 84.3331 6.31913 84.8441 6.69801C84.9119 6.74857 84.8088 6.75051 84.9038 6.82883C85.2107 7.08111 85.478 7.0274 85.813 7.36894C86.1469 7.7109 86.9269 8.25167 88.0735 8.81889C88.1098 8.83727 88.4388 8.8757 88.7815 9.08893C89.3284 9.4281 90.0809 9.94473 90.6369 10.3187C90.9033 10.4976 90.78 10.3134 90.8271 10.3434C92.642 11.5243 93.8322 12.5116 95.581 14.0271C95.9015 14.3042 96.8969 15.0222 97.4365 15.6503C98.0245 16.3419 97.0857 15.9903 98.6207 17.3634C99.2319 17.9204 100.354 18.3218 101.15 19.6273C103.127 21.7671 104.644 24.0021 106.299 26.4022C106.373 26.5101 106.719 26.7831 106.88 27.0479C107.119 27.4409 107.19 27.6917 107.354 27.9753C108.035 29.1655 108.686 30.2415 109.271 31.4302C109.491 31.8821 109.352 31.7556 109.608 32.2964C109.861 32.837 110.115 33.1598 110.402 33.9213C110.617 34.4979 110.68 35.1326 110.957 35.8929C111.141 35.8529 111.348 36.372 111.733 37.2882C111.807 37.464 111.799 37.2499 111.837 37.332C111.993 37.6662 112.054 38.0052 112.2 38.3243C112.236 38.402 112.298 38.3854 112.33 38.448C112.61 38.9795 112.761 39.9566 112.784 40.1226C112.876 40.7624 113.036 41.0273 113.13 41.5118C113.222 41.9955 112.986 41.2992 113.113 41.8584C113.374 43.0141 113.723 44.5 113.941 45.6774C114.029 46.1483 114.052 45.8115 114.067 45.8786C114.271 46.8512 114.332 47.8612 114.574 48.3814C114.23 49.1226 114.707 48.9667 114.77 50.3973C114.774 50.5088 114.582 50.6715 114.508 50.2476C114.434 49.8235 114.423 49.1695 114.296 48.588C114.268 48.449 113.96 47.6856 113.93 47.5785C113.706 46.7439 113.985 46.5737 113.995 46.5252C114.089 45.9821 113.695 45.0568 113.626 44.8061C113.319 43.655 113.124 42.6757 112.82 41.7268C112.62 41.1087 112.407 41.1042 112.271 40.6169C111.811 39.0053 111.886 38.3446 111.108 36.9388C110.937 36.6384 110.858 37.031 110.574 35.8349C110.557 35.7596 110.365 34.8618 110.062 34.42C110.025 34.3646 109.966 34.3922 109.927 34.315C109.662 33.7974 109.551 33.4237 109.26 32.8629C108.97 32.3033 108.601 31.6369 108.289 30.9882C108.101 30.5969 107.943 30.0502 107.868 29.8525C107.66 29.2938 107.225 28.8151 107.129 28.449C107.031 28.0791 107.536 28.6202 107.097 27.7529C106.934 27.8087 106.744 27.8274 106.57 27.866C105.482 26.0591 104.35 24.3162 103.046 22.6466C102.884 22.4401 102.978 22.7072 102.802 22.488C102.059 21.5656 101.445 20.7282 100.608 19.8264C99.9596 19.129 99.1755 18.4343 98.4585 17.7482C98.1693 17.1802 97.0603 16.198 96.2708 15.4728C95.9946 15.218 96.0471 15.1965 95.857 15.0073C95.1352 14.2981 95.3808 14.7383 95.1538 14.5788C94.1742 13.9045 94.3425 13.54 93.2264 12.6857C93.1676 12.639 92.3194 12.2568 92.2113 12.1951C91.5231 11.7949 92.1484 12.0593 91.7551 11.7561C91.0345 11.206 90.5415 10.8054 89.6176 10.275C89.3476 10.1202 88.6531 9.82967 88.1894 9.43376C88.1284 9.38168 88.2009 9.34634 88.1484 9.30995C87.1915 8.6594 87.0537 8.8339 86.4458 8.57351C85.8372 8.31342 85.0091 7.71226 84.8426 7.58065C84.41 7.23559 85.2337 7.72918 85.2639 7.73452C85.629 7.78215 84.9615 7.45329 84.4568 7.189C84.4777 6.96434 83.7537 6.62313 83.9321 6.91756C83.9529 6.94992 84.3591 7.12877 84.4568 7.189C83.9174 7.14717 83.129 6.79017 82.327 6.22046C81.9499 5.95612 82.3875 6.02284 81.1043 5.51989C80.5215 5.29656 80.6898 5.52116 80.1657 5.35283C78.9678 4.96869 77.4804 4.29751 76.2321 3.93386C75.782 3.80267 76.195 4.01237 75.8868 3.92624C75.0691 3.69992 74.361 3.44014 73.5239 3.25688C73.4485 3.2406 73.6107 3.36678 73.354 3.30275C71.4063 2.82401 69.6881 2.42946 67.6126 2.13391C66.6113 1.98724 64.8078 1.84402 63.7587 1.76907C61.9407 1.62323 59.6743 1.47907 58.1125 1.56718C57.0965 1.62402 57.3248 1.70107 56.89 1.77987C56.0522 1.93124 54.5712 1.87011 54.3688 1.86372C54.3635 1.86209 55.227 1.7602 54.7614 1.76177C54.4851 1.69965 54.3787 1.8624 54.3688 1.86372C54.2344 1.85226 52.4992 2.04224 52.1612 2.11352C51.9767 2.14897 52.0918 2.21119 51.9956 2.22835C49.6943 2.63897 47.4239 3.14426 45.1345 3.75608C45.0941 3.76594 45.1305 3.66471 45.0355 3.68907C43.7089 4.03024 42.9022 4.40801 41.8618 4.84167C40.8228 5.2776 39.9834 5.58851 39.3093 5.70371C38.5298 6.04244 37.3822 6.48179 36.7299 6.74858C36.0769 7.01453 36.0634 7.21497 36.0095 7.24455C34.3304 8.20179 33.3083 8.65171 31.5893 9.68034C30.7697 10.1677 29.2087 11.2316 28.3861 11.8529C27.7343 12.3404 27.3179 12.603 26.7397 13.0825C26.6616 13.1475 26.789 13.1443 26.7663 13.1656C26.1637 13.7519 26.3662 13.3597 26.2098 13.4408C25.6452 13.7385 25.2983 13.9318 24.5173 14.6744C24.3364 14.8458 23.9697 15.5209 23.6482 15.8346C23.2292 16.2429 23.3266 16.0229 22.8942 16.4583C22.8574 16.4957 22.9049 16.5304 22.6294 16.789C21.3511 17.9901 20.0048 19.3548 18.8228 20.7451C18.6614 20.9349 18.9395 20.7526 18.7084 21.028C17.6245 22.3208 16.4967 23.7847 15.5231 25.1105C15.2833 25.4369 15.3741 25.1912 15.3081 25.2524C14.9028 25.6311 14.6232 26.366 14.558 26.4734C12.9948 29.0466 11.7467 31.001 10.5441 33.8286C10.4766 33.9827 10.1331 35.2325 9.77689 35.7047C9.75251 35.7365 9.39046 36.2048 9.31451 36.7148C9.31011 36.7465 9.51204 36.4447 9.2862 37.0196C9.05997 37.5968 8.78227 38.5447 8.43558 39.326C8.32574 39.573 7.97814 40.1323 7.8786 40.9389C7.87004 40.9918 7.81808 42.2596 7.52033 42.6371C7.47222 42.6984 7.27934 42.5726 7.16254 43.5296C7.14141 43.7126 7.26185 43.3999 7.18229 43.8757C7.06125 44.6052 6.80727 45.5511 6.74198 46.4592C6.73015 46.6177 6.7569 47.3038 6.56955 47.8197C6.54023 47.9001 6.49405 47.7318 6.44451 48.0109C6.2095 49.3388 6.102 50.7498 5.95677 52.1183C5.90636 52.6047 5.80846 52.3494 5.74763 52.8592C5.68592 53.372 5.61723 54.3932 5.66084 54.9325C5.70423 55.4703 5.89216 54.8844 5.89947 55.6896C5.94501 59.2004 6.14073 62.5794 6.76022 65.997C6.85349 66.5006 6.83516 66.0725 6.98364 66.8105C7.50105 69.5571 8.98202 74.1249 9.80566 76.4049C10.4469 78.2362 9.42716 76.0165 9.96283 77.4031C10.2258 78.074 10.7423 78.6911 10.8212 78.8438C11.5965 80.3409 12.0564 81.4224 12.8292 82.7326C12.9896 83.0021 12.9114 82.6928 13.0475 82.9219C13.5131 83.7031 13.9788 84.5396 14.4561 85.2672C14.6707 85.5931 14.6862 85.4971 14.8793 85.7991C15.3432 86.5198 15.7549 87.1596 16.1984 87.8727C16.239 87.9378 15.8692 87.5691 16.2425 88.0851C16.8476 88.9187 17.5885 89.9684 18.3998 90.8372C18.6414 91.0945 18.7608 91.0098 19.1788 91.6473C19.2675 91.78 18.9963 91.7505 19.7 92.3037C19.8168 92.3998 20.9704 93.3414 21.3853 93.9482C21.4937 94.1094 21.7347 94.5604 22.0544 94.84C22.0981 94.8774 21.9894 94.6598 22.246 94.8986C23.1501 95.7403 24.1032 96.6162 25.089 97.4148C25.3525 97.6274 25.0197 97.2402 25.4111 97.5578C26.4864 98.4305 27.8472 99.4977 28.943 100.295C29.3469 100.59 29.0246 100.448 29.0501 100.475C29.4618 100.91 29.8434 100.967 30.0095 101.066C31.0452 101.686 31.7868 102.237 32.7571 102.781C33.0252 102.931 32.8763 102.754 32.9326 102.779C33.515 103.036 33.036 102.923 33.3772 103.135C34.3351 103.728 35.4476 104.305 36.4786 104.79C36.8564 104.968 36.4729 104.683 36.8113 104.842C38.8162 105.78 40.9553 106.645 42.992 107.37C43.3763 107.507 43.111 107.493 43.1868 107.535C43.7114 107.825 44.5786 107.927 44.7717 107.967C45.6511 108.153 45.9749 108.303 46.7448 108.487C50.5195 109.403 55.2312 110.045 58.9128 110.12C63.7411 110.221 67.4032 109.897 71.8574 108.912C72.1396 108.848 71.8346 108.821 72.077 108.764C75.2004 108.029 78.2371 107.083 81.1865 105.798C81.4289 105.692 81.0443 105.762 81.4311 105.588C82.2244 105.232 83.22 104.775 84.02 104.407C84.4096 104.228 83.929 104.553 84.3205 104.37C85.2317 103.943 86.1844 103.436 87.072 102.906C87.4489 102.68 86.831 102.935 87.3231 102.647C90.6705 100.669 93.7391 98.3785 96.7099 95.7985C96.9131 95.6213 97.2131 95.5945 97.6044 95.1709C97.6004 95.1042 97.5572 95.0627 97.5331 95.0104C101.594 91.0605 105.076 86.5808 107.776 81.5721C107.889 81.3612 107.609 81.6803 107.827 81.2717C109.082 78.8999 110.106 76.5046 111.109 73.9464C111.207 73.6922 111.326 73.8822 111.558 73.1096C111.601 72.9741 111.946 71.8095 111.997 71.4992C112.003 71.4569 111.865 71.6456 111.972 71.2716C112.601 69.0924 113.138 66.7843 113.54 64.5515C113.604 64.1906 113.628 64.5897 113.674 64.3322C114.002 62.5154 114.137 60.5063 114.299 58.7379C114.404 57.562 114.53 58.0036 114.693 57.3757C114.717 57.2869 114.732 56.5475 114.816 56.5095C115.028 56.4124 115.256 56.7764 115.483 56.6304C115.533 56.5998 115.483 55.5914 115.599 56.1888C115.608 56.2307 115.64 56.9617 115.675 57.1421C115.7 57.2679 115.79 57.0438 115.819 57.3004C115.849 57.5571 115.77 57.8358 115.794 58.2596C115.818 58.6843 115.927 58.498 115.891 59.3505ZM33.8157 8.03205C33.2014 8.27707 33.2638 8.58509 33.8479 8.18075C33.8761 8.16096 33.8473 8.01934 33.8157 8.03205ZM104.508 24.218C104.115 23.4433 103.604 23.0927 103.883 23.637C104.158 24.1812 104.626 24.4536 104.508 24.218ZM109.157 31.7913C108.801 30.8449 108.352 30.8997 108.908 31.8175C108.94 31.8711 109.177 31.8466 109.157 31.7913ZM114.584 60.3109C114.589 60.3023 114.632 59.7728 114.628 59.7597C114.554 59.4715 114.469 60.5287 114.584 60.3109ZM112.508 39.9654C112.474 39.6495 112.132 38.806 112.184 39.2C112.228 39.5164 112.553 40.3589 112.508 39.9654ZM10.4013 32.2984C10.3926 32.3057 10.2255 32.6487 10.2518 32.6526C10.3358 32.6634 10.5432 32.1753 10.4013 32.2984ZM114.879 54.773C114.836 52.5587 115.074 51.1752 115.168 53.6114C115.181 54.0504 115.012 52.6711 115.007 53.2315C114.998 54.2511 115.236 54.9273 115.12 55.9807C115.101 56.1698 114.883 54.8981 114.878 54.7691C114.878 54.7704 114.879 54.7717 114.879 54.773ZM33.3105 7.90043C33.2968 7.90294 32.8335 8.15934 32.8247 8.16946C32.6224 8.39277 33.5539 7.87671 33.3105 7.90043ZM4.90087 53.779C4.88862 53.8073 4.84616 55.0364 4.85598 55.0772C4.99519 55.7192 5.07915 53.2387 4.90087 53.779ZM67.7807 1.32695C68.3656 1.31235 69.059 1.41182 69.4937 1.60946C68.9269 1.50474 68.3513 1.41333 67.7807 1.32695Z" fill="black"/>
<circle cx="60.5" cy="56.5" r="50.5" fill="#AE9B93"/>
<path d="M111.405 59.552C111.319 61.3508 111.031 63.6805 110.693 65.4438C110.588 65.9943 110.612 65.7104 110.536 66.0889C110.385 66.8264 110.25 67.5224 110.066 68.2459C110.005 68.4856 110.036 68.1765 109.972 68.4277C109.622 69.8011 109.265 71.0987 108.805 72.4657C106.537 79.1785 102.943 85.3189 98.1178 90.6142C96.5305 92.3652 94.4218 94.3203 92.5371 95.8677C92.3175 96.0487 92.4723 95.9703 92.4322 96.0068C91.7985 96.5755 91.9722 96.3402 91.5287 96.6734C89.766 97.9928 87.7279 99.3523 85.9017 100.422C85.1232 100.876 85.9453 100.494 85.1332 100.903C85.0768 100.931 85.2578 100.786 85.0396 100.902C84.5449 101.168 83.6091 101.667 83.2179 101.857C82.4655 102.225 82.341 102.284 81.6231 102.616C80.6395 103.067 79.4468 103.547 78.3624 103.963C78.1307 104.052 78.4528 103.975 78.0839 104.119C77.7155 104.265 76.7276 104.606 76.3879 104.705C76.0492 104.806 76.1824 104.729 76.1207 104.742C75.6129 104.846 74.4815 105.269 74.3304 105.311C71.6044 106.113 69.1919 106.531 66.5497 106.85C64.5342 107.092 62.3836 107.227 60.4523 107.221C58.1533 107.212 56.2268 107.064 54.005 106.788C53.7717 106.758 54.0393 106.841 53.7542 106.804C50.7256 106.407 47.7553 105.73 44.8756 104.765C44.5865 104.667 44.9729 104.75 44.6853 104.65C42.9191 104.054 40.2337 102.855 39.1608 102.538C38.0189 102.003 36.6588 101.292 35.693 100.704C35.0717 100.325 35.7064 100.638 34.9247 100.206C34.749 100.108 34.9545 100.275 34.6927 100.124C33.5901 99.4888 32.4288 98.7222 31.3864 98.0135C31.1745 97.8695 31.2113 97.9385 31.1483 97.9017C30.6187 97.5918 29.8558 96.9132 29.6851 96.7723C28.3773 95.7071 27.426 94.9263 26.2668 93.8673C25.9987 93.6204 26.2833 93.9474 26.0246 93.7104C24.6845 92.4788 23.3743 91.1175 22.2222 89.759C21.9663 89.4564 22.2354 89.7054 22.115 89.5593C21.5867 88.9138 21.4098 88.8199 20.92 88.1864C20.8172 88.0525 20.9037 88.1051 20.8875 88.0787C20.634 87.6655 20.3126 87.386 20.2357 87.2885C19.2656 86.0561 18.7618 85.1833 17.9281 83.9233C17.8289 83.7719 18.0124 84.1395 17.7362 83.7117C15.8982 80.861 14.2907 77.6271 13.1375 74.4776C12.9581 73.9869 13.1206 74.3243 13.1127 74.2921C12.9839 73.7681 12.7901 73.473 12.7304 73.3135C12.2624 72.0556 11.9707 70.8352 11.6316 69.9827C10.1536 64.4895 9.53954 58.7814 9.99603 53.1601C10.0018 53.0885 10.0352 53.2188 10.0465 53.0762C10.1967 51.3616 10.1119 51.6943 10.1571 50.5476C10.1689 50.2583 10.3793 49.4049 10.3984 49.3305C10.4638 49.0565 10.4843 49.3531 10.5026 49.2609C10.6551 48.5013 10.4283 48.5899 10.6085 47.5524C10.6146 47.52 10.6277 47.6628 10.6469 47.5765C10.7066 47.3086 10.7415 47.0388 10.8054 46.7786C10.9538 46.1843 11.0927 45.9879 11.2443 45.0623C11.2649 44.9456 11.1037 45.0934 11.3332 44.1839C11.4195 43.8227 11.8581 42.2174 12.0057 41.7791C12.1481 41.3385 12.0913 41.6537 12.1025 41.6225C12.523 40.4446 12.4031 40.9031 12.6695 40.3337C12.9401 39.7671 12.7197 39.8741 12.7854 39.627C12.8501 39.3798 13.2067 38.5343 13.3026 38.3303C13.397 38.1257 13.3182 38.3958 13.3979 38.2125C13.933 37.0011 13.5314 37.6401 13.6695 37.2249C14.0019 36.2482 14.4511 35.5637 14.8668 34.7215C14.9799 34.4935 14.863 34.6681 14.9595 34.4622C15.345 33.6477 15.626 33.1849 16.0818 32.2689C16.1558 32.1186 16.4911 31.3557 16.8132 30.9233C16.8588 30.8622 16.7771 31.0639 16.9783 30.7378C17.2775 30.2508 17.8289 29.3776 18.1581 28.8583C18.401 28.4745 18.0691 28.8792 18.3995 28.4121C18.5472 28.2052 18.3105 28.6132 18.5863 28.2238C18.8591 27.8344 19.5593 26.8427 19.8356 26.4728C20.1094 26.1022 19.9268 26.2806 19.9467 26.249C20.0678 26.0577 20.5929 25.3432 20.6425 25.2825C23.0825 22.1734 25.7096 19.6184 28.6759 17.1782C28.9093 16.9873 28.7263 17.0803 28.7616 17.0509C29.5582 16.3925 28.9907 16.9872 29.5814 16.5732C29.4463 16.5693 29.7898 16.3171 30.3675 15.8755C30.6462 15.6633 30.4731 15.7499 30.4967 15.7281C30.8852 15.3785 31.2201 15.223 31.3037 15.1801C31.613 15.0216 31.888 14.7608 32.1007 14.6564C32.3129 14.5525 31.8943 14.8931 32.4712 14.5042C32.6164 14.37 32.1408 14.5896 32.5742 14.2852C34.1987 13.1127 37.5036 11.3596 38.9718 10.7065C40.4267 10.0355 40.9093 9.84005 41.7783 9.50062C43.3577 8.90588 42.7621 9.07478 43.7384 8.6947C44.7234 8.32488 44.2882 8.63368 44.4411 8.61467C44.5915 8.59777 44.7348 8.51589 44.9156 8.47563C45.0958 8.43579 44.724 8.5782 45.1371 8.45228C45.5511 8.32327 46.6625 7.9366 46.8029 7.86537C47.0966 7.71169 46.5599 7.77603 47.6766 7.50592C47.7409 7.49077 47.5433 7.58235 47.789 7.52254C49.7294 7.05004 51.7827 6.65166 53.7622 6.41585C54.0348 6.38359 53.7969 6.45853 53.9555 6.44051C55.6105 6.26572 55.0154 6.26787 55.9155 6.09868C55.7207 6.22707 56.2227 6.23345 57.4852 6.15694C58.2465 6.11479 58.1101 6.0765 58.5995 6.02351C58.7461 6.0074 59.2834 6.02443 59.3806 6.00076C59.7017 5.92385 59.1913 5.84162 60.5016 5.86739C60.5591 5.86894 60.376 5.90849 60.5747 5.91102C61.8582 5.93559 62.0071 5.86166 63.3888 5.92274C64.4768 5.97018 66.394 6.19816 67.6129 6.38418C67.5708 6.49872 68.7241 6.64205 69.2048 6.64406C69.9938 6.78394 70.84 6.94766 71.5947 7.12874C71.8538 7.19106 71.6752 7.18691 71.7072 7.19798C72.1957 7.36972 72.5509 7.37399 72.7192 7.41232C74.5442 7.83669 75.9874 8.34402 77.6868 8.89004C77.7469 8.90978 77.8728 8.86379 78.3002 9.08945C78.3275 9.10452 77.7613 8.93143 78.5476 9.23185C79.3344 9.53141 80.7797 10.1794 81.8511 10.641C82.1106 10.7509 82.7862 10.9976 83.2744 11.305C83.3394 11.3459 83.2539 11.3297 83.3461 11.3916C83.644 11.5912 83.8563 11.6049 84.1919 11.8649C84.5265 12.1252 85.2668 12.5833 86.2994 13.1407C86.3323 13.1587 86.6054 13.2424 86.9203 13.4374C87.4231 13.7474 88.1203 14.2119 88.6308 14.5555C88.8752 14.72 88.7423 14.5799 88.7852 14.6079C90.4392 15.7075 91.549 16.5877 93.1634 17.9688C93.4596 18.2214 94.341 18.9157 94.8618 19.4644C95.4298 20.0691 94.6853 19.6205 96.0704 20.9149C96.6229 21.4408 97.4936 21.9582 98.3079 23.0811C100.103 25.0645 101.543 27.0837 103.03 29.3112C103.097 29.4114 103.363 29.6946 103.512 29.937C103.732 30.2968 103.822 30.5123 103.973 30.7717C104.606 31.8602 105.183 32.8598 105.723 33.9489C105.926 34.363 105.825 34.234 106.061 34.7299C106.296 35.2258 106.493 35.5382 106.773 36.2296C106.984 36.7531 107.115 37.3057 107.379 38.002C107.475 37.9942 107.667 38.4705 108.001 39.3189C108.065 39.4817 108.032 39.2943 108.064 39.3708C108.194 39.6822 108.271 39.9858 108.391 40.2834C108.42 40.3559 108.452 40.3492 108.477 40.408C108.696 40.9075 108.892 41.7847 108.923 41.9343C109.045 42.5101 109.159 42.763 109.26 43.2034C109.36 43.6433 109.162 42.9989 109.287 43.51C109.546 44.5667 109.863 45.9334 110.065 47.0149C110.146 47.4476 110.132 47.1446 110.145 47.2064C110.323 48.1007 110.417 49.0231 110.569 49.5103C110.435 50.1663 110.673 50.0498 110.767 51.3579C110.774 51.4598 110.684 51.6011 110.629 51.2099C110.573 50.8184 110.537 50.2202 110.44 49.6829C110.418 49.5546 110.216 48.8401 110.193 48.7404C110.025 47.9649 110.153 47.8301 110.155 47.7868C110.166 47.3011 109.89 46.4349 109.832 46.2025C109.577 45.1376 109.38 44.2404 109.119 43.362C108.948 42.7899 108.833 42.7622 108.706 42.3134C108.272 40.8285 108.23 40.2607 107.61 38.9299C107.473 38.6453 107.488 38.9735 107.157 37.8967C107.137 37.8287 106.898 37.027 106.658 36.603C106.628 36.5498 106.599 36.5644 106.565 36.4922C106.334 36.0086 106.211 35.6727 105.953 35.1509C105.695 34.6302 105.368 34.008 105.072 33.4134C104.893 33.0546 104.703 32.5744 104.623 32.3982C104.4 31.9008 104.049 31.4305 103.924 31.1149C103.796 30.7965 104.203 31.3274 103.776 30.5446C103.687 30.5596 103.574 30.5394 103.474 30.538C102.468 28.8717 101.405 27.277 100.205 25.7353C100.056 25.5446 100.172 25.7675 100.011 25.5643C99.3301 24.7089 98.7421 23.9536 97.9781 23.1142C97.3863 22.4651 96.6919 21.7958 96.0364 21.1545C95.7116 20.6873 94.708 19.7618 93.9741 19.0978C93.7175 18.8645 93.7516 18.861 93.5716 18.6918C92.8889 18.0575 93.1621 18.4091 92.9599 18.2532C92.0861 17.5933 92.1382 17.3826 91.113 16.5929C91.0591 16.5499 90.3291 16.1284 90.2322 16.0668C89.6178 15.6689 90.1563 15.9658 89.7897 15.6913C89.1182 15.1934 88.6525 14.8415 87.8144 14.3312C87.5697 14.1822 86.9573 13.8681 86.5075 13.5385C86.4484 13.4951 86.5005 13.487 86.4512 13.4549C85.5549 12.8792 85.4732 12.9625 84.9266 12.6953C84.379 12.4282 83.5846 11.9277 83.4231 11.8224C83.0028 11.5453 83.7747 11.977 83.8005 11.986C84.1119 12.0777 83.501 11.7664 83.034 11.5269C83.0136 11.3985 82.3502 11.08 82.5486 11.2807C82.5715 11.3029 82.9422 11.475 83.034 11.5269C82.5759 11.4113 81.8509 11.0708 81.0784 10.6193C80.7155 10.4102 81.1008 10.512 79.9261 10.0343C79.3924 9.822 79.5703 9.97281 79.0932 9.80225C78.0021 9.41275 76.6109 8.84692 75.4633 8.50339C75.0493 8.37935 75.4399 8.54094 75.1566 8.45828C74.4046 8.24078 73.7447 8.02518 72.9758 7.84377C72.9065 7.82758 73.0648 7.91027 72.828 7.85073C71.0303 7.40473 69.441 7.0626 67.5242 6.79028C66.5994 6.65507 64.9335 6.50355 63.9648 6.43833C62.2851 6.31036 60.2011 6.22831 58.7623 6.29704C57.8261 6.34149 58.0352 6.37778 57.6331 6.42673C56.8575 6.52035 55.493 6.54636 55.3078 6.55315C55.3031 6.55206 56.101 6.46623 55.6726 6.48551C55.4208 6.46531 55.3171 6.55209 55.3078 6.55315C55.1844 6.55079 53.5828 6.73406 53.27 6.79326C53.0991 6.82237 53.2006 6.84711 53.1116 6.8617C50.982 7.21159 48.8816 7.67043 46.7712 8.25042C46.734 8.26017 46.7778 8.20228 46.6904 8.22582C45.4709 8.55639 44.7133 8.86174 43.7429 9.23712C42.774 9.61455 42.0002 9.91082 41.4021 10.0758C40.6794 10.3811 39.6313 10.8124 39.0371 11.0738C38.4422 11.3343 38.3982 11.4547 38.3477 11.4808C36.7765 12.3241 35.8506 12.7768 34.2673 13.7317C33.5122 14.1843 32.0653 15.1579 31.3009 15.7254C30.6951 16.1706 30.3206 16.4265 29.78 16.8608C29.707 16.9197 29.8051 16.8915 29.7834 16.9102C29.2026 17.4218 29.4384 17.121 29.3027 17.2069C28.8131 17.5215 28.5111 17.7201 27.7753 18.3867C27.6052 18.5405 27.1922 19.079 26.8902 19.3643C26.4971 19.7357 26.6147 19.5622 26.2084 19.9573C26.1738 19.9913 26.2006 20.0051 25.9466 20.245C24.768 21.3591 23.5342 22.6304 22.44 23.9137C22.2905 24.089 22.5175 23.8946 22.303 24.1487C21.2967 25.3415 20.2542 26.6973 19.3691 27.9339C19.1512 28.2384 19.2581 28.027 19.2038 28.0883C18.8705 28.4662 18.5523 29.1046 18.4906 29.2035C17.0155 31.5647 15.919 33.4032 14.7795 36.0029C14.7156 36.1442 14.3259 37.2705 14.0582 37.7326C14.0397 37.7639 13.7686 38.2215 13.6549 38.676C13.6481 38.7042 13.802 38.4126 13.5965 38.9456C13.3907 39.4805 13.1115 40.3501 12.8276 41.0846C12.7375 41.317 12.4815 41.8531 12.3375 42.583C12.3262 42.6302 12.1594 43.7714 11.966 44.142C11.935 44.2023 11.8436 44.1075 11.6912 44.9807C11.663 45.1477 11.7549 44.8541 11.6692 45.2912C11.5385 45.9616 11.3272 46.8408 11.2275 47.6736C11.2096 47.8189 11.1742 48.4441 11.0464 48.9294C11.0264 49.005 11.0133 48.8536 10.9708 49.1124C10.7691 50.3439 10.6495 51.6508 10.5361 52.9176C10.4968 53.3677 10.4545 53.1341 10.4113 53.6052C10.3673 54.0791 10.3164 55.0204 10.3347 55.5169C10.3528 56.0121 10.4495 55.4716 10.4501 56.2139C10.465 59.4465 10.6917 62.588 11.271 65.7434C11.3583 66.209 11.3142 65.8182 11.4511 66.5011C11.9274 69.0416 13.2744 73.2798 14.0905 75.3664C14.7265 77.0411 13.8173 74.9767 14.3294 76.2494C14.5802 76.8645 14.9757 77.4711 15.0462 77.6138C15.7371 79.0101 16.1977 79.9921 16.9012 81.2086C17.0473 81.459 16.9435 81.191 17.0678 81.4038C17.4931 82.1297 17.9378 82.895 18.3766 83.5695C18.5739 83.8717 18.565 83.7981 18.7455 84.0764C19.1788 84.7406 19.5695 85.3262 20.0006 85.9702C20.04 86.0289 19.7261 85.668 20.0721 86.144C20.6329 86.9132 21.337 87.8664 22.0661 88.6859C22.2831 88.9286 22.3455 88.8917 22.765 89.4525C22.854 89.5691 22.6601 89.4913 23.2613 90.0462C23.3606 90.1418 24.3633 91.0738 24.7882 91.5954C24.8993 91.734 25.1659 92.1067 25.4542 92.3718C25.4935 92.4074 25.3693 92.2307 25.6042 92.4538C26.4321 93.2397 27.3156 94.0468 28.2201 94.7932C28.4619 94.9921 28.1314 94.6609 28.4914 94.9572C29.4808 95.7717 30.746 96.7525 31.7662 97.4814C32.1422 97.7505 31.8607 97.5954 31.8861 97.6178C32.296 97.9774 32.6093 98.0872 32.7608 98.1827C33.7055 98.7765 34.4092 99.2584 35.302 99.7693C35.5488 99.9098 35.3944 99.7746 35.445 99.8C35.9696 100.063 35.5561 99.9065 35.8749 100.097C36.7701 100.63 37.7972 101.165 38.7487 101.618C39.0975 101.784 38.7261 101.555 39.0388 101.703C40.8914 102.577 42.8739 103.375 44.765 104.025C45.1219 104.148 44.8856 104.107 44.9579 104.139C45.4572 104.362 46.2393 104.518 46.4165 104.561C47.2221 104.76 47.5288 104.874 48.2397 105.049C51.7225 105.919 56.1037 106.498 59.4977 106.556C63.9438 106.635 67.345 106.307 71.4589 105.404C71.7199 105.345 71.4466 105.359 71.671 105.307C74.5629 104.636 77.3673 103.747 80.1 102.569C80.3246 102.472 79.9833 102.57 80.3425 102.412C81.0794 102.087 82.0007 101.662 82.7359 101.311C83.0939 101.14 82.6348 101.412 82.9947 101.238C83.8321 100.832 84.7115 100.361 85.5353 99.8764C85.8852 99.6695 85.3328 99.9391 85.7885 99.6725C88.888 97.8456 91.7352 95.7283 94.4493 93.3055C94.635 93.1391 94.859 93.0576 95.2306 92.6772C95.2418 92.6312 95.2195 92.6111 95.2132 92.5795C98.9777 88.9347 102.178 84.7741 104.67 80.1422C104.774 79.9471 104.552 80.2618 104.753 79.8836C105.914 77.6892 106.873 75.4752 107.761 73.0954C107.848 72.859 107.89 73.0108 108.114 72.3009C108.156 72.1764 108.484 71.1037 108.546 70.8214C108.554 70.783 108.458 70.9671 108.559 70.6215C109.145 68.6077 109.634 66.4705 109.985 64.4036C110.042 64.0694 110.028 64.4326 110.068 64.1944C110.352 62.5142 110.503 60.6614 110.621 59.027C110.696 57.9408 110.75 58.3459 110.84 57.7661C110.853 57.6842 110.865 57.0037 110.907 56.9685C111.013 56.8786 111.126 57.2114 111.24 57.0765C111.266 57.0483 111.242 56.1266 111.299 56.6725C111.304 56.7108 111.317 57.3785 111.333 57.5429C111.344 57.6575 111.391 57.4523 111.404 57.686C111.416 57.9198 111.373 58.1748 111.379 58.5608C111.383 58.9474 111.443 58.7757 111.405 59.552ZM36.3856 12.3242C35.8367 12.5798 35.8323 12.7538 36.3857 12.4073C36.4125 12.3905 36.4139 12.311 36.3856 12.3242ZM101.473 27.242C101.067 26.5616 100.662 26.1902 100.953 26.6661C101.242 27.1426 101.596 27.4493 101.473 27.242ZM105.717 34.2317C105.351 33.3812 105.096 33.3497 105.576 34.2122C105.604 34.2625 105.738 34.2815 105.717 34.2317ZM110.722 60.4663C110.725 60.4582 110.762 59.971 110.761 59.959C110.732 59.6964 110.658 60.67 110.722 60.4663ZM108.757 41.7636C108.702 41.4804 108.415 40.6969 108.491 41.0498C108.554 41.3335 108.827 42.1168 108.757 41.7636ZM14.9436 34.7301C14.9372 34.7376 14.7853 35.0534 14.7999 35.0524C14.8463 35.0479 15.0456 34.6034 14.9436 34.7301ZM110.934 55.3724C110.887 53.3362 110.96 52.0792 111.063 54.3107C111.078 54.7131 110.966 53.4462 110.975 53.9596C110.991 54.8946 111.117 55.5167 111.06 56.4823C111.051 56.6561 110.938 55.4878 110.933 55.3688C110.934 55.37 110.934 55.3712 110.934 55.3724ZM35.9938 12.3352C35.982 12.3389 35.5574 12.5757 35.5485 12.5836C35.343 12.7542 36.1973 12.2772 35.9938 12.3352ZM9.96879 54.4622C9.96106 54.4883 9.92538 55.6158 9.93115 55.6533C9.99404 56.2421 10.0643 53.9645 9.96879 54.4622ZM67.6317 6.39009C68.1621 6.4161 68.7954 6.51165 69.2024 6.64358C68.6824 6.5502 68.1548 6.46681 67.6317 6.39009Z" fill="black"/>
<g filter="url(#filter1_i_78_24)">
<circle cx="61" cy="57" r="36" fill="#D3C4BE"/>
</g>
<g filter="url(#filter2_f_78_24)">
<path d="M25.782 63.9192C22.0364 44.393 34.8292 25.5275 54.3555 21.7819C73.8817 18.0364 92.7473 30.8291 96.4928 50.3554C96.8696 52.3197 79.2508 46.0261 59.7245 49.7717C40.1982 53.5172 25.782 63.9192 25.782 63.9192Z" fill="#A79188"/>
</g>
<path d="M122.5 114C119 114.5 99 95 99 95L103.5 90L107 85C107 85 130.5 99 131 104C131.5 109 126 113.5 122.5 114Z" fill="#C9B2A8"/>
<path d="M100.958 95.5126C101.349 95.8513 101.768 96.2885 102.108 96.664C102.215 96.7815 102.123 96.7674 102.19 96.8451C102.32 96.9972 102.477 97.11 102.612 97.2714C102.657 97.3251 102.536 97.3268 102.585 97.3819C102.844 97.678 103.124 97.9121 103.401 98.1963C104.752 99.5847 106.137 100.907 107.568 102.255C108.042 102.701 108.577 103.285 109.098 103.705C109.159 103.754 109.173 103.668 109.188 103.673C109.424 103.758 109.267 103.818 109.368 103.934C109.768 104.395 110.267 104.844 110.724 105.205C110.918 105.359 110.828 105.086 110.961 105.311C110.971 105.327 110.872 105.345 110.918 105.396C111.021 105.511 111.251 105.692 111.337 105.774C111.502 105.934 111.531 105.958 111.696 106.101C111.92 106.298 112.163 106.557 112.415 106.749C112.47 106.791 112.453 106.671 112.545 106.731C112.637 106.792 112.852 106.984 112.914 107.06C112.975 107.137 112.903 107.159 112.907 107.181C112.936 107.365 113.297 107.449 113.332 107.473C113.979 107.923 114.432 108.423 114.996 108.88C115.43 109.231 115.906 109.57 116.326 109.903C116.814 110.292 117.213 110.651 117.706 111.006C117.759 111.044 117.753 110.923 117.818 110.969C118.493 111.452 119.172 111.943 119.818 112.426C119.887 112.477 119.749 112.488 119.816 112.544C120.213 112.879 120.829 113.407 121.261 113.206C121.543 113.355 121.878 113.502 122.112 113.62C122.259 113.693 122.102 113.766 122.319 113.746C122.365 113.739 122.302 113.659 122.367 113.652C122.637 113.605 123.038 113.532 123.325 113.401C123.386 113.373 123.347 113.311 123.362 113.293C123.475 113.15 123.782 113.219 123.84 113.209C124.289 113.133 124.572 112.958 124.942 112.764C125.028 112.718 124.882 112.689 124.962 112.642C125.379 112.399 125.804 112.14 126.215 111.897C126.306 111.843 126.275 111.966 126.321 111.943C126.524 111.842 126.472 111.689 126.66 111.584C126.7 111.562 126.723 111.632 126.734 111.633C126.91 111.647 126.892 111.443 126.915 111.419C127.204 111.113 127.522 111.065 127.799 110.762C127.831 110.725 127.692 110.739 127.787 110.641C128.416 109.986 129.037 109.259 129.562 108.527C129.643 108.413 129.648 108.532 129.66 108.529C129.844 108.469 129.742 108.302 129.759 108.259C129.894 107.925 130.168 107.679 130.078 107.376C130.7 106.032 130.986 104.4 130.461 103.09C130.454 103.073 130.545 103.065 130.532 103.032C130.357 102.615 130.27 102.741 129.981 102.59C129.908 102.553 129.927 102.249 129.923 102.221C129.918 102.127 130.067 102.119 130.059 102.091C129.991 101.868 129.692 102.155 129.516 101.935C129.511 101.928 129.594 101.909 129.585 101.886C129.556 101.813 129.485 101.774 129.457 101.7C129.39 101.526 129.512 101.36 129.254 101.244C129.22 101.23 129.081 101.423 128.915 101.225C128.846 101.14 128.543 100.826 128.462 100.724C128.384 100.623 128.499 100.632 128.495 100.624C128.323 100.308 128.439 100.367 128.424 100.143C128.406 99.9202 128.194 100.203 128.118 100.183C128.042 100.163 127.918 99.9304 127.891 99.8663C127.866 99.8025 127.955 99.8215 127.926 99.7714C127.728 99.4392 127.686 99.7844 127.561 99.7439C127.271 99.6535 127.284 99.3144 127.104 99.1193C127.056 99.0667 127.06 99.1496 127.009 99.1114C126.804 98.9582 126.755 98.807 126.492 98.6776C126.449 98.6565 126.175 98.6262 126.135 98.4417C126.129 98.4154 126.217 98.4048 126.145 98.3247C126.041 98.2081 125.834 98.016 125.689 97.9241C125.582 97.8562 125.625 98.0303 125.524 97.9039C125.479 97.8476 125.62 97.8827 125.532 97.7808C125.443 97.6782 125.184 97.47 125.084 97.3924C124.984 97.3146 124.987 97.4211 124.976 97.4189C124.908 97.4044 124.694 97.2822 124.677 97.2686C123.821 96.5978 123.107 95.8802 122.231 95.2849C122.162 95.2381 122.156 95.3396 122.145 95.3332C121.895 95.1926 122.21 95.1438 122.096 94.9643C122.016 95.1207 121.94 95.0256 121.767 94.9216C121.683 94.8716 121.686 94.957 121.675 94.9573C121.498 94.954 121.496 94.7899 121.491 94.7529C121.474 94.6171 121.321 94.6509 121.308 94.5594C121.295 94.4683 121.472 94.477 121.316 94.3648C121.236 94.3833 121.256 94.5983 121.122 94.5338C120.618 94.2898 119.857 93.5906 119.501 93.325C119.147 93.0597 119.023 92.9877 118.825 92.8223C118.466 92.5238 118.537 92.7193 118.268 92.6002C117.998 92.4809 118.282 92.3174 118.284 92.2413C118.286 92.1657 118.212 92.1943 118.19 92.1367C118.168 92.0792 118.283 92.1057 118.192 92.0273C118.101 91.9488 117.769 91.8586 117.696 91.8891C117.542 91.9547 117.581 92.1599 117.348 91.9386C117.335 91.9258 117.428 91.8948 117.374 91.849C116.952 91.4887 116.476 91.1637 116.049 90.8141C115.99 90.766 116.094 90.7315 116.061 90.7027C115.712 90.4038 115.764 90.614 115.464 90.6091C115.631 90.461 115.586 90.2725 115.297 90.0793C115.123 89.9633 115.101 90.0619 114.952 90.0433C114.908 90.0383 114.819 89.902 114.771 89.9239C114.617 89.9957 114.645 90.2081 114.378 89.9556C114.367 89.9444 114.452 89.9057 114.409 89.8717C114.13 89.6513 114.018 89.7592 113.686 89.5649C113.421 89.4092 113.042 89.0538 112.754 88.8502C112.891 88.65 112.588 88.5213 112.389 88.5927C112.21 88.4696 112.004 88.3491 111.834 88.213C111.775 88.1666 111.854 88.1335 111.85 88.1221C111.794 87.9448 111.626 88.0311 111.583 88.0112C111.125 87.794 110.83 87.4617 110.342 87.2978C110.325 87.292 110.21 87.419 110.164 87.2446C110.161 87.2329 110.34 87.2543 110.146 87.1263C109.96 87.0023 109.623 86.6859 109.318 86.5886C109.248 86.5671 108.999 86.5742 108.92 86.3997C108.91 86.3762 108.955 86.3473 108.943 86.3083C108.904 86.1838 108.77 86.301 108.752 86.1199C108.744 85.9449 108.562 85.7057 108.255 85.6351C108.244 85.6317 108.101 85.7027 108.013 85.6466C107.871 85.5594 107.713 85.408 107.541 85.3643C107.461 85.3439 107.493 85.4389 107.479 85.437C106.981 85.3799 106.633 85.5712 106.287 86.0605C106.22 86.1452 106.136 86.4641 105.943 86.583C105.73 86.7137 105.528 86.2851 105.307 86.7721C105.217 86.9684 105.491 87.4877 105.051 87.6449C104.682 88.2889 104.176 88.7695 103.83 89.4317C103.814 89.4615 103.873 89.6311 103.826 89.6946C103.756 89.789 103.664 89.8018 103.613 89.8671C103.404 90.1452 103.205 90.3978 102.98 90.6456C102.892 90.7381 102.869 90.6579 102.765 90.7682C102.66 90.8785 102.661 91.0158 102.49 91.1389C102.361 91.2316 102.116 91.2203 101.962 91.3589C102.095 91.4898 101.998 91.5926 101.866 91.8128C101.841 91.8552 101.924 91.8601 101.914 91.8824C101.877 91.9741 101.779 92.0022 101.747 92.0924C101.739 92.1142 101.786 92.1577 101.782 92.178C101.752 92.3521 101.48 92.4393 101.433 92.4541C101.254 92.5112 101.265 92.6231 101.154 92.6906C101.043 92.758 101.133 92.5886 101.019 92.6813C100.783 92.8736 100.532 93.1679 100.325 93.3932C100.243 93.4833 100.362 93.4784 100.351 93.4927C100.199 93.6946 99.9609 93.8235 99.9935 94.0409C99.5523 93.8773 99.9152 94.1827 99.6228 94.3914C99.6037 94.4065 99.4031 94.3239 99.4612 94.2003C99.5196 94.085 99.6725 94.0156 99.7395 93.8695C99.7552 93.8354 99.7479 93.5528 99.7579 93.5242C99.8361 93.2996 100.087 93.484 100.108 93.4867C100.332 93.5119 100.344 93.1854 100.378 93.1267C100.531 92.8578 100.735 92.6962 100.868 92.4768C100.956 92.3335 100.816 92.1856 100.907 92.0933C101.211 91.7865 101.523 91.8642 101.612 91.3977C101.631 91.2979 101.408 91.2137 101.747 91.0984C101.768 91.0912 102.042 91.0257 102.057 90.8586C102.058 90.8376 102.01 90.7947 102.021 90.7746C102.094 90.6405 102.199 90.6013 102.289 90.4644C102.379 90.3275 102.482 90.1581 102.622 90.0354C102.707 89.9601 102.886 89.9416 102.942 89.9234C103.101 89.8728 103.099 89.6732 103.226 89.6625C103.36 89.6523 103.382 89.8953 103.574 89.7367C103.444 89.6294 103.317 89.5109 103.188 89.4005C103.487 88.9825 103.848 88.5621 104.151 88.1163C104.189 88.0606 104.075 88.0651 104.114 88.004C104.276 87.7465 104.482 87.5658 104.641 87.2926C104.765 87.0809 104.84 86.8066 104.967 86.5836C105.214 86.5661 105.378 86.2182 105.55 86.0027C105.61 85.9272 105.649 85.962 105.702 85.9154C105.901 85.739 105.692 85.7408 105.711 85.6674C105.801 85.3629 106.073 85.5156 106.453 85.1924C106.461 85.1745 106.67 84.8238 106.729 84.7978C107.025 84.6172 106.803 84.8429 107 84.8125C107.367 84.7837 107.598 84.8467 108.008 84.9932C108.116 85.0354 108.306 85.0036 108.401 85.1766C108.412 85.1989 108.367 85.2506 108.379 85.263C108.607 85.4795 108.708 85.2916 108.895 85.3221C109.087 85.3551 109.224 85.6122 109.247 85.6764C109.307 85.8424 109.133 85.6609 109.121 85.6667C108.982 85.731 109.149 85.808 109.269 85.8953C109.177 86.0838 109.363 86.1842 109.396 85.9858C109.399 85.9638 109.289 85.9188 109.269 85.8953C109.489 85.7899 109.696 85.8873 109.8 86.1777C109.852 86.3155 109.699 86.3434 110.027 86.5028C110.179 86.5773 110.195 86.4178 110.334 86.4582C110.647 86.548 110.943 86.8924 111.228 87.0473C111.334 87.1051 111.277 86.9758 111.351 87.0132C111.547 87.1119 111.687 87.2706 111.882 87.3586C111.9 87.3667 111.904 87.2714 111.961 87.3066C112.401 87.5748 112.753 87.8619 113.21 88.1582C113.438 88.3055 113.842 88.5125 114.068 88.6707C114.463 88.9457 114.867 89.3533 115.223 89.5536C115.449 89.6802 115.448 89.5804 115.572 89.5949C115.811 89.6225 116.024 89.9983 116.051 90.0524C116.052 90.054 115.852 89.9447 115.929 90.0469C115.939 90.1593 116.048 90.0513 116.051 90.0524C116.07 90.0886 116.43 90.3512 116.513 90.388C116.558 90.4077 116.579 90.3278 116.602 90.3393C117.142 90.6168 117.649 90.9361 118.136 91.3128C118.144 91.3202 118.081 91.3831 118.1 91.3996C118.369 91.6304 118.615 91.67 118.891 91.7838C119.168 91.8977 119.346 92.0474 119.401 92.2688C119.592 92.3789 119.812 92.6143 119.938 92.7518C120.063 92.8892 120.182 92.765 120.197 92.7714C120.666 92.9714 120.844 93.2177 121.255 93.5323C121.451 93.6823 121.86 93.9489 122.085 94.0909C122.263 94.2029 122.343 94.3113 122.515 94.4062C122.538 94.4191 122.562 94.3424 122.57 94.3448C122.798 94.4011 122.604 94.4878 122.62 94.541C122.679 94.7341 122.721 94.8449 122.975 94.9647C123.033 94.9919 123.344 94.8924 123.447 94.9506C123.581 95.0267 123.477 95.0682 123.618 95.1459C123.63 95.1526 123.664 95.104 123.74 95.1654C124.094 95.4483 124.472 95.7834 124.845 96.0697C124.896 96.109 124.889 95.9845 124.963 96.0401C125.315 96.3026 125.693 96.6108 125.994 96.914C126.071 96.9906 125.977 96.9986 125.983 97.0284C126.018 97.2097 126.281 97.2057 126.309 97.2244C126.963 97.6623 127.316 98.1687 127.971 98.6631C128.008 98.69 128.375 98.7786 128.381 98.9996C128.382 99.0146 128.383 99.2363 128.556 99.2487C128.566 99.2495 128.555 99.1245 128.668 99.2441C128.783 99.3655 128.999 99.4978 129.101 99.7295C129.133 99.8019 129.14 100.036 129.378 100.099C129.395 100.103 129.825 100.136 129.766 100.367C129.755 100.403 129.588 100.531 129.841 100.65C129.889 100.673 129.865 100.575 129.973 100.652C130.137 100.769 130.266 101.006 130.499 101.145C130.54 101.168 130.77 101.226 130.771 101.409C130.771 101.437 130.689 101.445 130.729 101.511C130.938 101.853 131.194 102.144 131.363 102.56C131.417 102.701 131.28 102.681 131.319 102.83C131.368 102.998 131.455 103.293 131.549 103.437C131.646 103.596 131.78 103.371 131.852 103.63C132.079 104.64 131.872 105.69 131.605 106.633C131.564 106.774 131.661 106.674 131.601 106.883C131.397 107.661 130.832 108.927 130.335 109.407C129.946 109.793 130.25 109.188 129.986 109.499C129.86 109.646 129.905 109.94 129.882 109.983C129.656 110.396 129.377 110.585 129.121 110.913C129.067 110.981 129.188 110.976 129.141 111.033C128.982 111.229 128.771 111.392 128.605 111.564C128.531 111.641 128.59 111.674 128.515 111.74C128.335 111.895 128.161 112.016 127.947 112.12C127.928 112.129 127.981 111.976 127.848 112.087C127.632 112.266 127.326 112.437 127.104 112.679C127.039 112.751 127.125 112.874 126.896 112.912C126.847 112.919 126.79 112.742 126.682 113.005C126.666 113.049 126.439 113.452 126.197 113.441C126.133 113.439 125.942 113.384 125.855 113.461C125.844 113.472 125.938 113.51 125.86 113.565C125.58 113.758 125.257 113.919 124.951 114.091C124.867 114.137 125.031 114.152 124.905 114.219C124.559 114.402 124.092 114.562 123.703 114.653C123.557 114.687 123.637 114.591 123.624 114.587C123.425 114.519 123.372 114.702 123.315 114.726C122.955 114.867 122.779 114.852 122.324 114.885C122.202 114.887 122.289 114.968 122.264 114.974C121.994 115.025 122.19 114.898 122.048 114.866C121.647 114.766 121.23 114.614 120.912 114.487C120.805 114.444 120.887 114.58 120.791 114.539C120.19 114.283 119.664 113.964 119.189 113.609C119.098 113.541 119.196 113.519 119.184 113.493C119.103 113.31 118.845 113.324 118.79 113.306C118.556 113.232 118.506 113.124 118.325 113.015C117.453 112.494 116.463 111.704 115.729 111.101C114.757 110.304 114.065 109.656 113.145 108.915C113.087 108.868 113.086 108.988 113.035 108.948C112.377 108.43 111.773 107.871 111.125 107.349C111.071 107.306 111.089 107.437 111.001 107.37C110.821 107.234 110.607 107.042 110.454 106.872C110.379 106.789 110.541 106.829 110.464 106.747C110.286 106.555 110.08 106.367 109.869 106.201C109.779 106.131 109.849 106.312 109.737 106.215C108.972 105.557 108.224 104.914 107.541 104.145C107.495 104.092 107.572 103.915 107.438 103.842C107.396 103.872 107.356 103.917 107.316 103.955C106.205 102.994 105.18 101.971 104.106 100.964C104.061 100.921 104.073 101.065 103.986 100.984C103.487 100.52 102.967 100.072 102.513 99.5149C102.469 99.4604 102.611 99.3596 102.445 99.2393C102.418 99.2204 102.17 99.0185 102.085 98.9896C102.073 98.9861 102.06 99.0836 101.985 99.0157C101.55 98.6235 101.132 98.2032 100.725 97.75C100.663 97.6793 100.794 97.6868 100.75 97.636C100.449 97.2879 100.017 96.9652 99.7408 96.5937C99.5676 96.3557 99.7432 96.3208 99.7229 96.101C99.7189 96.0689 99.5865 95.9371 99.6391 95.871C99.7684 95.7021 99.9918 95.596 100.122 95.4087C100.149 95.367 99.9465 95.2448 100.126 95.2547C100.137 95.2548 100.29 95.3477 100.351 95.3516C100.393 95.3537 100.411 95.2523 100.483 95.2721C100.552 95.2899 100.567 95.4042 100.664 95.4396C100.766 95.4789 100.798 95.3756 100.958 95.5126ZM120.5 93.3705C120.589 93.5343 120.783 93.3053 120.594 93.2581C120.584 93.2561 120.495 93.3622 120.5 93.3705ZM104.029 88.6969C104.263 88.5934 104.189 88.3595 104.017 88.4275C103.846 88.4956 103.958 88.7286 104.029 88.6969ZM102.738 90.5214C102.986 90.401 102.698 90.0873 102.579 90.3482C102.572 90.3633 102.724 90.5285 102.738 90.5214ZM100.3 96.5966C100.3 96.5917 100.2 96.4902 100.195 96.491C100.074 96.5074 100.275 96.71 100.3 96.5966ZM101.31 92.2645C101.406 92.2436 101.511 92.0285 101.391 92.0545C101.295 92.0754 101.191 92.2907 101.31 92.2645ZM127.196 99.0058C127.195 99.0109 127.266 99.0795 127.281 99.0595C127.331 98.9947 127.213 98.9201 127.196 99.0058ZM99.3978 95.4615C99.1566 94.8254 99.6598 94.6314 99.6128 95.0974C99.6192 95.1906 99.48 94.9101 99.4598 95.0342C99.4351 95.2977 99.6937 95.3357 99.7593 95.5673C99.778 95.626 99.4111 95.5125 99.3969 95.4607C99.3972 95.461 99.3975 95.4612 99.3978 95.4615ZM120.37 93.719C120.371 93.7241 120.478 93.8052 120.482 93.8039C120.597 93.769 120.381 93.6055 120.37 93.719ZM130.682 103.367C130.68 103.379 130.768 103.645 130.777 103.66C130.981 103.78 130.791 103.186 130.682 103.367ZM112.753 88.8418C112.576 88.8418 112.423 88.7566 112.39 88.5932C112.508 88.6765 112.631 88.7566 112.753 88.8418Z" fill="black"/>
</g>
<defs>
<filter id="filter0_d_78_24" x="0.694092" y="0.722992" width="135.255" height="122.263" filterUnits="userSpaceOnUse" color-interpolation-filters="sRGB">
<feFlood flood-opacity="0" result="BackgroundImageFix"/>
<feColorMatrix in="SourceAlpha" type="matrix" values="0 0 0 0 0 0 0 0 0 0 0 0 0 0 0 0 0 0 127 0" result="hardAlpha"/>
<feOffset dy="4"/>
<feGaussianBlur stdDeviation="2"/>
<feComposite in2="hardAlpha" operator="out"/>
<feColorMatrix type="matrix" values="0 0 0 0 0 0 0 0 0 0 0 0 0 0 0 0 0 0 0.25 0"/>
<feBlend mode="normal" in2="BackgroundImageFix" result="effect1_dropShadow_78_24"/>
<feBlend mode="normal" in="SourceGraphic" in2="effect1_dropShadow_78_24" result="shape"/>
</filter>
<filter id="filter1_i_78_24" x="25" y="21" width="72" height="76" filterUnits="userSpaceOnUse" color-interpolation-filters="sRGB">
<feFlood flood-opacity="0" result="BackgroundImageFix"/>
<feBlend mode="normal" in="SourceGraphic" in2="BackgroundImageFix" result="shape"/>
<feColorMatrix in="SourceAlpha" type="matrix" values="0 0 0 0 0 0 0 0 0 0 0 0 0 0 0 0 0 0 127 0" result="hardAlpha"/>
<feOffset dy="4"/>
<feGaussianBlur stdDeviation="2"/>
<feComposite in2="hardAlpha" operator="arithmetic" k2="-1" k3="1"/>
<feColorMatrix type="matrix" values="0 0 0 0 0 0 0 0 0 0 0 0 0 0 0 0 0 0 0.25 0"/>
<feBlend mode="normal" in2="shape" result="effect1_innerShadow_78_24"/>
</filter>
<filter id="filter2_f_78_24" x="21.1309" y="17.1307" width="79.3679" height="50.7885" filterUnits="userSpaceOnUse" color-interpolation-filters="sRGB">
<feFlood flood-opacity="0" result="BackgroundImageFix"/>
<feBlend mode="normal" in="SourceGraphic" in2="BackgroundImageFix" result="shape"/>
<feGaussianBlur stdDeviation="2" result="effect1_foregroundBlur_78_24"/>
</filter>
</defs>
</svg>
